<svg xmlns="http://www.w3.org/2000/svg" width="16" height="18" viewBox="0 0 16 18" fill="none">
<path fill-rule="evenodd" clip-rule="evenodd" d="M8.65 0C9.67173 0 10.5 0.828273 10.5 1.85L10.494 2H15.125C15.6082 2 16 2.39175 16 2.875C16 3.35825 15.6082 3.75 15.125 3.75H15V15.5C15 16.8807 13.8807 18 12.5 18H3.5C2.11929 18 1 16.8807 1 15.5V3.75H0.875C0.391751 3.75 0 3.35825 0 2.875C0 2.39175 0.391751 2 0.875 2H5.50599C5.50202 1.95052 5.5 1.9005 5.5 1.85C5.5 0.828273 6.32827 0 7.35 0H8.65ZM13.25 3.75H2.75V15.5C2.75 15.9142 3.08579 16.25 3.5 16.25H12.5C12.9142 16.25 13.25 15.9142 13.25 15.5V3.75ZM6 6V13.5C6 14.0523 5.55228 14.5 5 14.5C4.44772 14.5 4 14.0523 4 13.5V6H6ZM9 6V13.5C9 14.0523 8.55229 14.5 8 14.5C7.44772 14.5 7 14.0523 7 13.5V6H9ZM12 6V13.5C12 14.0523 11.5523 14.5 11 14.5C10.4477 14.5 10 14.0523 10 13.5V6H12Z" fill="#6A7070"/>
</svg>